<?xml version="1.0" encoding="utf-8"?>
<!-- Generator: Adobe Illustrator 19.0.0, SVG Export Plug-In . SVG Version: 6.00 Build 0)  -->
<svg version="1.1" id="Layer_1" xmlns="http://www.w3.org/2000/svg" xmlns:xlink="http://www.w3.org/1999/xlink" x="0px" y="0px"
	 viewBox="0 0 512 300" style="enable-background:new 0 0 512 300;" xml:space="preserve">
<style type="text/css">
	.st0{fill:#111111;}
	.st1{fill:#911A1D;}
</style>
<g>
	<path class="st0" d="M458.1,0H323.8c-4.5,0-7.5,2.6-7.9,7.1l-15.4,175.3h-1.9L262,6.7c-1.1-4.5-3.7-6.7-8.2-6.7h-22.5
		c-4.5,0-7.1,2.2-8.2,6.7L186,182.4h-1.9L169.5,7.1c-0.4-4.5-3.4-7.1-7.9-7.1H126c-4.9,0-7.5,3-7.1,7.9l30.7,284.7
		c0.4,4.9,3,7.1,7.9,7.1H195c4.5,0,7.1-2.2,8.2-6.4l39.3-169.7l39,169.3c1.1,4.5,3.7,6.7,8.2,6.7h36.7c4.9,0,7.5-2.2,7.9-7.1
		l27.8-245.8v246.9c0,3.7,2.2,6,6,6h39c4.1,0,6-2.2,6-6v-94.4h45c35.2,0,53.9-19.1,53.9-53.9V53.9C512,18.7,493.3,0,458.1,0z
		 M461,134.9c0,9.4-4.9,15-15,15h-33V49.5h33c10.1,0,15,5.2,15,15V134.9z"/>
	<path class="st1" d="M141.4,282.1c-6.2,5.2-13.4,9.2-21.6,12.2c-9.5,3.5-19.4,5.3-29.6,5.3c-17.7,0-31.2-4.9-40.7-14.8
		c-9.5-9.9-14.1-24.1-14.1-42.7V101.2h-27c-2.4,0-4.4-0.7-6-2C0.9,97.8,0,95.6,0,92.8V77.1l36.7-4.6l9.1-65.1c0.2-2.2,1.1-4,2.7-5.3
		c1.5-1.3,3.5-2,6-2h19.9v73.1h44.2l3.1,28.5H74.3V240c0,9.5,2.2,16.6,6.9,21.2c4.6,4.6,10.6,6.9,17.9,6.9c4.2,0,7.7-0.7,10.8-1.8
		c3.1-1.1,5.7-2.4,8-3.8c2.2-1.3,4.2-2.7,5.7-3.8c1.2-0.9,10-8.2,14.1-11.1L141.4,282.1z"/>
</g>
</svg>
