<?xml version="1.0" encoding="utf-8"?>
<!-- Generator: Adobe Illustrator 19.0.0, SVG Export Plug-In . SVG Version: 6.00 Build 0)  -->
<svg version="1.1" id="Layer_1" xmlns="http://www.w3.org/2000/svg" xmlns:xlink="http://www.w3.org/1999/xlink" x="0px" y="0px"
	 viewBox="0 0 1000 355" style="enable-background:new 0 0 1000 355;" xml:space="preserve">
<style type="text/css">
	.st0{fill:#111111;}
	.st1{fill:#990000;}
	.st2{opacity:0.3;fill:#111111;}
	.st3{opacity:0.2;}
</style>
<g>
	<path class="st0" d="M79,256.8c1.6,0,2.5,1,2.3,2.6l-10.6,93.2c-0.1,1.6-1,2.3-2.6,2.3h-12c-1.5,0-2.3-0.7-2.7-2.2l-12.8-55.4
		l-12.9,55.6c-0.4,1.3-1.2,2.1-2.7,2.1H12.8c-1.6,0-2.5-0.7-2.6-2.3L0.2,259.4c-0.1-1.6,0.7-2.6,2.3-2.6h11.7c1.5,0,2.5,0.9,2.6,2.3
		l4.8,57.4h0.6L34.3,259c0.4-1.5,1.2-2.2,2.7-2.2h7.4c1.5,0,2.3,0.7,2.7,2.2l12,57.5h0.6l5-57.4c0.1-1.5,1.1-2.3,2.6-2.3H79z"/>
	<path class="st0" d="M142.5,271c0,1.2-0.5,2.1-2,2.1h-30.7v24.5h23.4c1.2,0,2,0.7,2,2.1v12.1c0,1.4-0.7,2.1-2,2.1h-23.4v24.8h30.7
		c1.5,0,2,0.6,2,2V353c0,1.2-0.5,2-2,2H95.4c-1.1,0-1.8-0.7-1.8-2v-94.2c0-1.2,0.7-2,1.8-2h45.1c1.5,0,2,0.7,2,2V271z"/>
	<path class="st0" d="M203.9,297c0,4.5-3.3,8-7.7,8.7v0.2c4.4,0.7,7.7,4.2,7.7,8.7v22.6c0,11.5-6.3,17.7-17.8,17.7h-29.4
		c-1.2,0-2-0.7-2-2v-94.2c0-1.3,0.7-2,2-2h29.4c11.5,0,17.8,6.1,17.8,17.7V297z M187.6,277.9c0-3.2-1.6-4.9-4.9-4.9h-11.2v24.8h11.2
		c3.2,0,4.9-1.7,4.9-4.8V277.9z M187.6,318.9c0-3.2-1.6-4.9-4.9-4.9h-11.2v24.8h11.2c3.2,0,4.9-1.6,4.9-4.9V318.9z"/>
	<path class="st0" d="M246.9,258.8c0-1.2,0.7-2,2-2h29.4c11.5,0,17.7,6.1,17.7,17.7v29.9c0,11.4-6.1,17.7-17.7,17.7h-14.7V353
		c0,1.2-0.6,2-2,2h-12.8c-1.2,0-2-0.7-2-2V258.8z M274.4,305.9c3.3,0,4.9-1.8,4.9-4.9v-23.1c0-3.2-1.6-4.9-4.9-4.9h-10.8v32.9H274.4
		z"/>
	<path class="st0" d="M357.4,304.4c0,8.2-3.1,13.6-9,16.2l8.5,32.1c0.4,1.5-0.4,2.2-1.7,2.2h-12.8c-1.2,0-1.8-0.6-2.1-1.7l-8.2-31.2
		h-8.5V353c0,1.2-0.7,2-2,2h-12.8c-1.2,0-2-0.7-2-2v-94.2c0-1.2,0.7-2,2-2h30.8c11.5,0,17.7,6.1,17.7,17.7V304.4z M335.8,305.9
		c3.2,0,4.9-1.7,4.9-4.9v-23.1c0-3.2-1.7-4.9-4.9-4.9h-12.1v32.9H335.8z"/>
	<path class="st0" d="M367.2,274.5c0-11.5,6.1-17.7,17.7-17.7h13.7c11.5,0,17.7,6.1,17.7,17.7v62.8c0,11.5-6.1,17.7-17.7,17.7h-13.7
		c-11.5,0-17.7-6.1-17.7-17.7V274.5z M395.5,339.1c3.2,0,4.9-1.6,4.9-4.9v-56.7c0-3.2-1.7-4.9-4.9-4.9h-7.1c-3.2,0-4.9,1.7-4.9,4.9
		v56.7c0,3.3,1.7,4.9,4.9,4.9H395.5z"/>
	<path class="st0" d="M477.6,271c0,1.2-0.7,2-2,2h-30.4v24.7h23.1c1.2,0,2,0.7,2,2v12.3c0,1.4-0.7,2-2,2h-23.1V353c0,1.2-0.7,2-2,2
		h-12.8c-1.4,0-2-0.7-2-2v-94.2c0-1.2,0.6-2,2-2h45.1c1.2,0,2,0.7,2,2V271z"/>
	<path class="st0" d="M538.8,271c0,1.2-0.5,2.1-2,2.1h-30.7v24.5h23.4c1.2,0,2,0.7,2,2.1v12.1c0,1.4-0.7,2.1-2,2.1h-23.4v24.8h30.7
		c1.5,0,2,0.6,2,2V353c0,1.2-0.5,2-2,2h-45.1c-1.1,0-1.8-0.7-1.8-2v-94.2c0-1.2,0.7-2,1.8-2h45.1c1.5,0,2,0.7,2,2V271z"/>
	<path class="st0" d="M578.8,256.8c11.5,0,17.7,6.1,17.7,17.7v13c0,1.2-0.6,2-2,2h-12.8c-1.2,0-2-0.7-2-2v-9.6
		c0-3.2-1.6-4.9-4.9-4.9H569c-3.1,0-4.9,1.7-4.9,4.9v16.9l29.2,9.6c2.1,0.9,3.2,2.2,3.2,4.5v28.3c0,11.5-6.1,17.7-17.7,17.7h-13.7
		c-11.4,0-17.7-6.1-17.7-17.7v-12.9c0-1.3,0.7-2,2-2h12.8c1.3,0,2,0.6,2,2v9.4c0,3.3,1.8,4.9,4.9,4.9h5.9c3.2,0,4.9-1.6,4.9-4.9
		v-16.3l-29.1-9.6c-2.2-0.7-3.3-2.2-3.3-4.5v-28.9c0-11.5,6.3-17.7,17.7-17.7H578.8z"/>
	<path class="st0" d="M640.1,256.8c11.5,0,17.7,6.1,17.7,17.7v13c0,1.2-0.6,2-2,2h-12.8c-1.2,0-2-0.7-2-2v-9.6
		c0-3.2-1.6-4.9-4.9-4.9h-5.9c-3.1,0-4.9,1.7-4.9,4.9v16.9l29.2,9.6c2.1,0.9,3.2,2.2,3.2,4.5v28.3c0,11.5-6.1,17.7-17.7,17.7h-13.7
		c-11.4,0-17.7-6.1-17.7-17.7v-12.9c0-1.3,0.7-2,2-2h12.8c1.4,0,2,0.6,2,2v9.4c0,3.3,1.8,4.9,4.9,4.9h5.9c3.2,0,4.9-1.6,4.9-4.9
		v-16.3l-29.1-9.6c-2.2-0.7-3.3-2.2-3.3-4.5v-28.9c0-11.5,6.3-17.7,17.7-17.7H640.1z"/>
	<path class="st0" d="M684.8,256.8c1.2,0,2,0.7,2,2V353c0,1.2-0.7,2-2,2H672c-1.3,0-2-0.7-2-2v-94.2c0-1.2,0.6-2,2-2H684.8z"/>
	<path class="st0" d="M699,274.5c0-11.5,6.1-17.7,17.7-17.7h13.7c11.5,0,17.7,6.1,17.7,17.7v62.8c0,11.5-6.1,17.7-17.7,17.7h-13.7
		c-11.5,0-17.7-6.1-17.7-17.7V274.5z M727.3,339.1c3.2,0,4.9-1.6,4.9-4.9v-56.7c0-3.2-1.7-4.9-4.9-4.9h-7.1c-3.2,0-4.9,1.7-4.9,4.9
		v56.7c0,3.3,1.7,4.9,4.9,4.9H727.3z"/>
	<path class="st0" d="M810.8,256.8c1.2,0,2,0.7,2,2V353c0,1.2-0.7,2-2,2h-12.1c-1.1,0-1.8-0.5-2.2-1.6l-18.8-52.4H777v52
		c0,1.2-0.6,2-2,2h-12.8c-1.2,0-2-0.7-2-2v-94.2c0-1.2,0.7-2,2-2h12.1c1.1,0,1.8,0.5,2.2,1.6l18.6,52.1h0.7v-51.8c0-1.2,0.6-2,2-2
		H810.8z"/>
	<path class="st0" d="M871.1,354.9c-1.1,0-1.7-0.6-2-1.7l-3.4-17.9h-21.8l-3.3,17.9c-0.2,1.1-0.9,1.7-2,1.7h-13.1
		c-1.3,0-2-0.7-1.6-2.1l20.4-94.3c0.2-1.2,1-1.7,2.1-1.7h17.1c1.1,0,1.8,0.5,2.1,1.7l20.4,94.3c0.2,1.3-0.2,2.1-1.7,2.1H871.1z
		 M854.8,278.3l-7.9,42.8h15.7L854.8,278.3z"/>
	<path class="st0" d="M913.5,338.7h29.2c1.3,0,2,0.7,2,2V353c0,1.3-0.6,2-2,2h-43.9c-1.2,0-2-0.6-2-2v-94.2c0-1.2,0.7-2,2-2h12.8
		c1.3,0,2,0.7,2,2V338.7z"/>
	<path class="st0" d="M982.2,256.8c11.5,0,17.7,6.1,17.7,17.7v13c0,1.2-0.6,2-2,2h-12.8c-1.2,0-2-0.7-2-2v-9.6
		c0-3.2-1.6-4.9-4.9-4.9h-5.9c-3.1,0-4.9,1.7-4.9,4.9v16.9l29.2,9.6c2.1,0.9,3.2,2.2,3.2,4.5v28.3c0,11.5-6.1,17.7-17.7,17.7h-13.7
		c-11.4,0-17.7-6.1-17.7-17.7v-12.9c0-1.3,0.7-2,2-2h12.8c1.3,0,2,0.6,2,2v9.4c0,3.3,1.8,4.9,4.9,4.9h5.9c3.2,0,4.9-1.6,4.9-4.9
		v-16.3l-29.1-9.6c-2.2-0.7-3.3-2.2-3.3-4.5v-28.9c0-11.5,6.3-17.7,17.7-17.7H982.2z"/>
</g>
<g>
	<path class="st1" d="M567.3,227.5v9.4h-51v-9.4c0-2.3,1.1-3.6,3.3-4l12.4-2.5V16.1c-7.1-1.8-8.2-2.2-9.4-2.6c-2-0.6-2.8-1.7-2.8-4
		V5.7V0h31.6v220.8c7.1,1.4,11.2,2.3,12.4,2.6C566.2,223.9,567.3,225.2,567.3,227.5"/>
	<path class="st1" d="M138.2,223.3c11,0,21-5.1,29.9-15.3v-64.7c-1.2-0.3-5.3-1.2-12.3-2.6c-2.3-0.4-3.4-1.7-3.4-4v-10.3h15.7h19.4
		V221c7.1,1.4,11.2,2.3,12.4,2.6c2.3,0.4,3.4,1.7,3.4,4v9.4h-27.4c-2.7,0-4.5-1.3-5.2-4l-1.5-11.9c-10.6,11.8-22.8,17.7-36.7,17.7
		c-11.8,0-21-3.8-27.6-11.5c-6.2-7.3-9.4-17.5-9.4-30.4v-53.6c-7-1.4-11.1-2.3-12.4-2.6c-2.2-0.4-3.3-1.7-3.3-4v-10.4h35.1v70.5
		c0,8.4,2,14.8,5.8,19.4c3.8,4.6,9.6,6.9,17.3,6.9L138.2,223.3z"/>
	<path class="st1" d="M259.2,124.8c7.6,0,17.2,2,28.8,5.8v7.7v20.6h-8.6c-2.1,0-3.3-1-3.6-3.1c-0.1-0.3-0.5-5.1-1.3-14.4
		c-6.7-1.5-12.3-2.3-17-2.3h-0.2c-6.2,0.1-11.2,1.6-15.1,4.7c-3.8,2.9-5.8,6.3-5.8,10c0,3.7,0.9,6.5,2.5,8.4
		c2.9,3.4,7.1,5.9,12.5,7.5c5.5,1.6,10,3.1,13.6,4.3c3.6,1.2,7.1,2.5,10.5,3.9c3.4,1.4,6.4,3.3,9.2,5.5c6,4.9,8.9,11.3,8.9,19.4
		c0,10.6-3.6,19-10.8,25.3c-7.5,6.7-17.2,10-29.1,10.1c-11.9,0.1-23.8-1.9-35.7-5.9v-28.9h7.7c1.9,0,2.9,0.9,3.3,2.7
		c0.1,0.7,0.5,5.3,1.3,14c6.2,2.9,13.7,4.4,22.5,4.4c7.2,0,12.9-1.9,17-5.5c3.7-3.3,5.6-7,5.6-11.1c0-4.1-0.8-7.2-2.4-9.2
		c-1.6-2-3.8-3.7-6.5-5.1c-2.7-1.4-5.8-2.6-9.3-3.6c-9.6-2.9-16.4-5.3-20.3-7.1c-3.9-1.7-7.2-3.7-9.9-6c-6-5-8.9-11.8-8.9-20.4
		c0-8.9,3.4-16.4,10.3-22.4c7.3-6.4,17.7-9.7,31.1-9.7L259.2,124.8z"/>
	<path class="st1" d="M392.6,221.3c-9.3,11.3-22.9,17-40.9,17c-14.2,0-25.8-5-34.7-15c-9.4-10.4-14.1-24.3-14.1-41.9
		c0-16.9,4.5-30.6,13.4-40.9c9.4-10.7,22.3-16,38.6-16c8.4,0,19.3,2.7,32.7,8.1v28.7H379c-2.1,0-3.3-1-3.6-3.1
		c-0.2-0.8-0.5-3.5-0.9-8.2c-0.3-4.7-0.5-7.1-0.5-7.3c-3.5-1.1-6.2-1.7-8.1-2.1c-4.3-0.7-8.3-1-12.2-0.9c-3.9,0.1-7.9,1.1-11.9,2.9
		c-4,1.9-7.4,4.6-10.3,8.2c-5.6,7.3-8.4,17.5-8.4,30.4c0,13.2,2.9,23.6,8.7,31.1c5.7,7.2,13.5,10.8,23.5,10.8
		c9.1,0,17.1-3.1,24.2-9.2c1.3-1.2,2.7-1.7,4.3-1.7c1.5,0,2.7,0.7,3.5,1.9l5.5,7.1H392.6z"/>
	<path class="st1" d="M500.1,223c2,0.3,3.4,2.1,3.4,4v9.4h-14.1h-1.6h-7c-1.9,0-3.4-0.3-4.6-0.9c-1.2-0.5-2-1.7-2.3-3.6l-2.2-10.3
		c-2.9,2.6-5.8,5-8.5,7.1c-2.7,2.1-5.7,3.8-8.7,5.2c-3.1,1.4-6.3,2.5-9.8,3.3c-3.5,0.8-7.3,1.1-11.6,1.1c-4.3,0-8.3-0.7-12-1.9
		c-3.7-1.2-7-3.1-9.7-5.5c-2.7-2.4-4.9-5.5-6.5-9.2c-1.6-3.7-2.4-8.1-2.4-13.1c0-4.4,1.2-8.6,3.6-12.7c2.4-4,6.3-7.6,11.7-10.8
		c5.3-3.2,12.3-5.8,21-7.7c8.6-2,19.2-2.9,31.8-2.9V166c0-8.6-1.9-15.2-5.6-19.6c-3.7-4.5-9.2-6.7-16.4-6.7c-4.7,0-8.6,0.7-11.9,1.9
		c-3.3,1.2-6.1,2.5-8.5,4c-2.4,1.5-4.5,2.8-6.2,4c-1.7,1.2-3.4,1.7-5,1.7c-1.3,0-2.5-0.3-3.5-1c-1-0.7-1.7-1.5-2.3-2.5l-3.5-6.2
		c6.1-5.9,12.7-10.3,19.8-13.2c7.1-2.9,15-4.4,23.6-4.4c6.2,0,11.7,1,16.5,3.1c4.8,2.1,8.8,4.9,12.1,8.5c3.3,3.6,5.8,8,7.4,13.1
		c1.6,5.1,2.5,10.8,2.5,17v55.1C492.5,221.6,500.1,223,500.1,223z M470.1,187c-8.9,0-16.6,0.5-22.8,1.6c-6.2,1.1-11.3,2.6-15.3,4.5
		c-3.9,1.9-6.8,4-8.5,6.5c-1.7,2.5-2.6,5.2-2.6,8.3c0,2.9,0.4,5.5,1.4,7.5c1,2.1,2.3,3.8,3.9,5.1c1.6,1.3,3.5,2.3,5.7,2.9
		c2.2,0.7,4.6,1,7.1,1c3.4,0,6.5-0.3,9.4-1c2.8-0.7,5.5-1.6,8-2.9c2.5-1.3,4.9-2.8,7.2-4.7c2.3-1.9,4.5-3.9,6.7-6.2L470.1,187z"/>
	<path class="st1" d="M652.1,128.6c6.5,2.7,12.1,6.5,16.7,11.5c4.6,4.9,8.1,10.9,10.5,17.9c2.4,7,3.6,14.8,3.6,23.5
		c0,8.7-1.2,16.6-3.6,23.6c-2.4,7-5.9,13-10.5,17.9c-4.6,4.9-10.1,8.7-16.7,11.3c-6.5,2.6-13.9,3.9-21.9,3.9
		c-8.1,0-15.4-1.3-21.9-3.9c-6.5-2.6-12.1-6.4-16.7-11.3c-4.6-4.9-8.1-10.9-10.6-17.9c-2.5-7-3.7-14.8-3.7-23.6
		c0-8.6,1.2-16.5,3.7-23.5c2.5-7,6-13,10.6-17.9c4.6-4.9,10.2-8.7,16.7-11.5c6.5-2.7,13.9-4,21.9-4
		C638.2,124.6,645.5,125.9,652.1,128.6 M630.1,223.3c10.9,0,19.1-3.7,24.4-11c5.3-7.3,8.1-17.6,8.1-30.7c0-13.2-2.7-23.5-8.1-30.8
		c-5.3-7.3-13.5-11-24.4-11c-5.6,0-10.4,1-14.4,2.8c-4,1.9-7.4,4.6-10.1,8.2c-2.7,3.6-4.8,8-6.1,13.2c-1.3,5.2-2,11.1-2,17.7
		c0,6.5,0.7,12.4,2,17.6c1.3,5.1,3.4,9.5,6.1,13c2.7,3.5,6.1,6.2,10.1,8.1c4,1.9,8.8,2.8,14.4,2.8V223.3z"/>
	<path class="st1" d="M767.3,128.6c6.5,2.7,12.1,6.5,16.7,11.5c4.6,4.9,8.1,10.9,10.5,17.9c2.4,7,3.6,14.8,3.6,23.5
		c0,8.7-1.2,16.6-3.6,23.6c-2.4,7-5.9,13-10.5,17.9c-4.6,4.9-10.1,8.7-16.7,11.3c-6.5,2.6-13.9,3.9-21.9,3.9
		c-8.1,0-15.4-1.3-21.9-3.9c-6.5-2.6-12.1-6.4-16.7-11.3c-4.6-4.9-8.1-10.9-10.6-17.9c-2.5-7-3.7-14.8-3.7-23.6
		c0-8.6,1.2-16.5,3.7-23.5c2.5-7,6-13,10.6-17.9c4.6-4.9,10.1-8.7,16.7-11.5c6.5-2.7,13.9-4,21.9-4
		C753.4,124.6,760.8,125.9,767.3,128.6 M745.4,223.3c10.9,0,19.1-3.7,24.4-11c5.3-7.3,8.1-17.6,8.1-30.7c0-13.2-2.7-23.5-8.1-30.8
		c-5.3-7.3-13.5-11-24.4-11c-5.6,0-10.4,1-14.4,2.8c-4,1.9-7.4,4.6-10.1,8.2c-2.7,3.6-4.8,8-6.1,13.2c-1.3,5.2-2,11.1-2,17.7
		c0,6.5,0.7,12.4,2,17.6c1.3,5.1,3.4,9.5,6.1,13c2.7,3.5,6.1,6.2,10.1,8.1c4,1.9,8.8,2.8,14.4,2.8V223.3z"/>
	<path class="st1" d="M853.4,124.8c7.6,0,17.2,2,28.8,5.8v7.7v20.6h-8.6c-2.1,0-3.3-1-3.6-3.1c-0.1-0.3-0.5-5.1-1.3-14.4
		c-6.7-1.5-12.3-2.3-17-2.3h-0.2c-6.2,0.1-11.2,1.6-15.1,4.7c-3.8,2.9-5.8,6.3-5.8,10c0,3.7,0.9,6.5,2.5,8.4
		c2.9,3.4,7.1,5.9,12.6,7.5c5.5,1.6,10,3.1,13.6,4.3c3.6,1.2,7.1,2.5,10.5,3.9c3.4,1.4,6.4,3.3,9.2,5.5c6,4.9,8.9,11.3,8.9,19.4
		c0,10.6-3.6,19-10.8,25.3c-7.5,6.7-17.2,10-29.1,10.1c-11.9,0.1-23.8-1.9-35.7-5.9v-28.9h7.7c1.9,0,2.9,0.9,3.3,2.7
		c0.1,0.7,0.5,5.3,1.3,14c6.2,2.9,13.8,4.4,22.5,4.4c7.2,0,12.9-1.9,17-5.5c3.7-3.3,5.6-7,5.6-11.1c0-4.1-0.8-7.2-2.4-9.2
		c-1.6-2-3.8-3.7-6.5-5.1c-2.7-1.4-5.8-2.6-9.3-3.6c-9.6-2.9-16.4-5.3-20.3-7.1c-3.9-1.7-7.2-3.7-9.9-6c-6-5-8.9-11.8-8.9-20.4
		c0-8.9,3.4-16.4,10.3-22.4c7.3-6.4,17.7-9.7,31.1-9.7L853.4,124.8z"/>
	<path class="st1" d="M995.5,223c2,0.3,3.4,2.1,3.4,4v9.4h-14.1h-1.6h-7c-1.9,0-3.4-0.3-4.6-0.9c-1.2-0.5-2-1.7-2.3-3.6l-2.2-10.3
		c-2.9,2.6-5.8,5-8.5,7.1c-2.7,2.1-5.7,3.8-8.7,5.2c-3.1,1.4-6.3,2.5-9.8,3.3c-3.5,0.8-7.3,1.1-11.6,1.1c-4.3,0-8.3-0.7-12-1.9
		c-3.7-1.2-7-3.1-9.7-5.5c-2.7-2.4-4.9-5.5-6.5-9.2c-1.6-3.7-2.4-8.1-2.4-13.1c0-4.4,1.2-8.6,3.6-12.7c2.4-4,6.3-7.6,11.7-10.8
		c5.3-3.2,12.3-5.8,21-7.7c8.6-2,19.2-2.9,31.8-2.9V166c0-8.6-1.9-15.2-5.6-19.6c-3.7-4.5-9.2-6.7-16.4-6.7c-4.7,0-8.6,0.7-11.9,1.9
		c-3.3,1.2-6.1,2.5-8.5,4c-2.4,1.5-4.5,2.8-6.2,4c-1.7,1.2-3.4,1.7-5,1.7c-1.3,0-2.5-0.3-3.5-1c-1-0.7-1.7-1.5-2.3-2.5l-3.5-6.2
		c6.1-5.9,12.7-10.3,19.8-13.2c7.1-2.9,15-4.4,23.6-4.4c6.2,0,11.7,1,16.5,3.1c4.8,2.1,8.8,4.9,12.1,8.5c3.3,3.6,5.8,8,7.4,13.1
		c1.6,5.1,2.5,10.8,2.5,17v55.1C987.8,221.6,995.5,223,995.5,223z M965.4,187c-8.9,0-16.6,0.5-22.8,1.6c-6.2,1.1-11.3,2.6-15.3,4.5
		c-3.9,1.9-6.8,4-8.5,6.5c-1.7,2.5-2.6,5.2-2.6,8.3c0,2.9,0.4,5.5,1.4,7.5c1,2.1,2.3,3.8,3.9,5.1c1.6,1.3,3.5,2.3,5.7,2.9
		c2.2,0.7,4.6,1,7.1,1c3.4,0,6.5-0.3,9.4-1c2.8-0.7,5.5-1.6,8-2.9c2.5-1.3,4.9-2.8,7.2-4.7c2.3-1.9,4.5-3.9,6.7-6.2L965.4,187z"/>
	<path class="st1" d="M24.3,231.1c-4.7-4.9-7-11.9-7-21.1v-69.7H4c-1.2,0-2.2-0.3-2.9-1c-0.8-0.7-1.2-1.7-1.2-3.2v-7.7l18.1-2.3
		L22.5,94c0.1-1.1,0.5-2,1.3-2.6c0.8-0.7,1.7-1,2.9-1h9.8v36.1h31.6v14.1H36.6v68.3c0,4.7,1.1,8.2,3.4,10.5c2.3,2.3,5.2,3.4,8.8,3.4
		c2.1,0,3.8-0.3,5.3-0.9c1.5-0.5,2.8-1.2,3.9-1.9c1.1-0.7,2.1-1.3,2.8-1.9c0.8-0.5,1.4-0.9,2-0.9c1,0,1.9,0.7,2.6,1.9l5.7,9.3
		c-3.4,3.2-7.4,5.6-12.1,7.3c-4.7,1.7-9.6,2.6-14.6,2.6C35.7,238.4,29,236,24.3,231.1z"/>
</g>
<g>
	<path class="st2" d="M952.5,101.5l-54.2-40c-0.4-0.3-0.8-0.4-1.2-0.5l-73.1-8.1L696.4,40.2L554.9,13.6v5.1l25.9,5.1v10.8
		c0,0.6,0.4,1,1,1h0.4l-27.3,40.2l0,7.1l32.1-47.4h2.9l0,65.9h-35v5h410.5v-5H952.5z M601.1,35.6c0.6,0,1-0.4,1-1v-6.8l42.5,7.9
		v62.6l-43.7-62.7H601.1z M794.9,58l-42.9,41.8V50.8l42.9,4.3V58z M748.9,99.5L704.4,53v-6.9l44.5,4.4V99.5z M687.6,44.7v8.9
		l-39.9,45.6v-63l39.9,7.4C687.6,44.1,687.6,44.3,687.6,44.7z M691.7,55h2.8v46.5H651L691.7,55z M697.5,55h3.2l44.5,46.5h-47.8V55z
		 M798.4,60h2.3v41.5h-44.9L798.4,60z M803.7,60h2.4l43.5,41.5h-45.9V60z M856.5,61.5l35.4,3.9l-35.4,34.4V61.5z M895.4,67.7v33.8
		h-34.8L895.4,67.7z M898.4,67.7l45.8,33.8h-45.8V67.7z M853.6,61.2v38.5l-43.7-41.6v-1.6l13.7,1.4L853.6,61.2z M593,35.6h3.1
		l45.9,65.9h-49L593,35.6z"/>
	<g>
		<path class="st2" d="M528.6,101.5l-37.4,0l0-68.4h2.9l34.5,50.5v-7l-29.6-43.5h0.5c0.6,0,1-0.4,1-1V20.9l24.9-3.5
			c-1.6-0.5-2.4-0.7-3.1-0.9l-0.5-0.2c-1.8-0.6-3.1-1.5-3.9-2.8L393.1,30.8L198.5,41.2c-0.1,0-0.1,0-0.2,0L100.9,54
			c-0.5,0.1-1,0.3-1.4,0.7l-47.7,46.8l-9.1,0v5l485.9,0V101.5z M99.7,101.5l-40.9,0l40.9-40.1V101.5z M102.7,101.5V60.8l41,40.7
			L102.7,101.5z M147.6,99.7L106,58.4l41.6-5.5V99.7z M150.6,52.5l39.7-5.2v2.6c0,0.5,0.2,1,0.4,1.4l-40.1,47.8V52.5z M196.9,101.5
			l-43.2,0L195.3,52h1.7L196.9,101.5z M199.9,101.5l0-49.6h2l41,49.6L199.9,101.5z M245.9,98.9L206.3,51c0.2-0.3,0.3-0.7,0.3-1.2
			v-4.1l39.3-2.1V98.9z M248.9,43.5l39.3-2.1v5.1c0,0,0,0,0,0l-39.3,52V43.5z M294.6,101.5l-42.9,0l40.8-54.1h2.1V101.5z
			 M297.6,101.5V47.4h2.1l41.4,54.1L297.6,101.5z M343.9,98.6l-40-52.2v-5.9l40-2.1V98.6z M346.9,38.3l37.9-2v4.4
			c0,0.5,0.3,0.8,0.8,0.9l-38.7,56.5V38.3z M391.8,101.5l-42.4,0l41-59.9h1.4L391.8,101.5z M394.8,101.5l0-59.9h1.5l41.4,59.9
			L394.8,101.5z M401.1,41.6c0.4-0.1,0.8-0.5,0.8-0.9v-6.1l38.4-5.4l0,69.1L401.1,41.6z M443.2,28.8l35.8-5v8.2c0,0.6,0.4,1,1,1h1.2
			l-38,64.4L443.2,28.8z M488.2,101.5l-42.6,0l40.4-68.4h2.3L488.2,101.5z"/>
	</g>
	<g class="st3">
		<g>
			<path class="st0" d="M498.9,33.1h0.5c0.6,0,1-0.4,1-1V20.9l0,0v-5l-21.3,3v5v8.2c0,0.6,0.4,1,1,1h1.2l-39.7,67.3l-1.3-2.1
				l-39.2-56.7c0.4-0.1,0.8-0.5,0.8-0.9v-6.1v-5l-8.8,1.2l-8.3,0.4v5v4.4c0,0.5,0.3,0.8,0.8,0.9l-40.2,59l-1.4-2l-40-52.2v-4.3
				l0-6.6l-15.7,0.8v5v5.1c0,0,0,0,0,0l0,0v0.1h-0.1l-40.8,54L206.3,51c0.2-0.3,0.3-0.7,0.3-1.2v-3.2h0v-5.9l-8.1,0.4
				c-0.1,0-0.1,0-0.2,0l-8.1,1.1v5v2.6c0,0.5,0.2,1,0.4,1.4l4.6,0.7h1.7h3h2l41,49.6l4.3,5l4.5-5l40.8-54.1h2.1h3h2.1l41.4,54.1
				l4.3,5l4-5l41-59.9h1.4h3h1.5l41.4,59.9l4.1,5l3.8-5l40.4-68.4h2.3h3h2.9l34.5,50.5v-7L498.9,33.1z"/>
		</g>
		<g>
			<path class="st2" d="M498.9,33.1h0.5c0.6,0,1-0.4,1-1V20.9l0,0v-5l-21.3,3v5v8.2c0,0.6,0.4,1,1,1h1.2l-39.7,67.3l-1.3-2.1
				l-39.2-56.7c0.4-0.1,0.8-0.5,0.8-0.9v-6.1v-5l-8.8,1.2l-8.3,0.4v5v4.4c0,0.5,0.3,0.8,0.8,0.9l-40.2,59l-1.4-2l-40-52.2v-4.3
				l0-6.6l-15.7,0.8v5v5.1c0,0,0,0,0,0l0,0v0.1h-0.1l-40.8,54L206.3,51c0.2-0.3,0.3-0.7,0.3-1.2v-3.2h0v-5.9l-8.1,0.4
				c-0.1,0-0.1,0-0.2,0l-8.1,1.1v5v2.6c0,0.5,0.2,1,0.4,1.4l4.6,0.7h1.7h3h2l41,49.6l4.3,5l4.5-5l40.8-54.1h2.1h3h2.1l41.4,54.1
				l4.3,5l4-5l41-59.9h1.4h3h1.5l41.4,59.9l4.1,5l3.8-5l40.4-68.4h2.3h3h2.9l34.5,50.5v-7L498.9,33.1z"/>
		</g>
	</g>
	<g class="st3">
		<g>
			<path class="st0" d="M794.9,50v5v0.8V58l-42.9,41.8l-1.5,1.4L704.4,53v-2.2v-4.8v-5l-8.1-0.8l-8.8-1.7v5.1c0,0,0,0.6,0,1v5.9v3
				l-41.2,47.1l-1.8-2.3l-43.7-62.7h0.2c0.6,0,1-0.4,1-1v-6.8h0v-5.3l-21.3-4v5.3v2.4v8.4c0,0.6,0.4,1,1,1h0.4l-27.3,40.2l0,7.1
				l32.1-47.4h2.9h3h3.1l45.9,65.9l4.4,5l4.7-5L691.7,55h2.8h3h3.2l44.5,46.5l5.3,5l5.3-5L798.4,60h2.3h3h0.6h1.8l0.5,0h2.3
				c0.6,0,1-0.4,1-1v-3.9v-3.6L794.9,50z"/>
		</g>
		<g>
			<path class="st2" d="M794.9,50v5v0.8V58l-42.9,41.8l-1.5,1.4L704.4,53v-2.2v-4.8v-5l-8.1-0.8l-8.8-1.7v5.1c0,0,0,0.6,0,1v5.9v3
				l-41.2,47.1l-1.8-2.3l-43.7-62.7h0.2c0.6,0,1-0.4,1-1v-6.8h0v-5.3l-21.3-4v5.3v2.4v8.4c0,0.6,0.4,1,1,1h0.4l-27.3,40.2l0,7.1
				l32.1-47.4h2.9h3h3.1l45.9,65.9l4.4,5l4.7-5L691.7,55h2.8h3h3.2l44.5,46.5l5.3,5l5.3-5L798.4,60h2.3h3h0.6h1.8l0.5,0h2.3
				c0.6,0,1-0.4,1-1v-3.9v-3.6L794.9,50z"/>
		</g>
	</g>
</g>
</svg>
